<?xml version="1.0" encoding="UTF-8" standalone="no"?>
<!DOCTYPE svg PUBLIC "-//W3C//DTD SVG 1.1//EN"
 "http://www.w3.org/Graphics/SVG/1.1/DTD/svg11.dtd">
<!-- Generated by graphviz version 2.43.0 (0)
 -->
<!-- Title: proof_row4 Pages: 1 -->
<svg width="1341pt" height="620pt"
 viewBox="0.00 0.00 1340.83 620.00" xmlns="http://www.w3.org/2000/svg" xmlns:xlink="http://www.w3.org/1999/xlink">
<g id="graph0" class="graph" transform="scale(1 1) rotate(0) translate(4 616)">
<title>proof_row4</title>
<polygon fill="white" stroke="transparent" points="-4,4 -4,-616 1336.83,-616 1336.83,4 -4,4"/>
<!-- 007 -->
<g id="node1" class="node">
<title>007</title>
<polygon fill="lightblue" stroke="blue" points="958.39,-324 781.39,-324 781.39,-288 958.39,-288 958.39,-324"/>
<text text-anchor="middle" x="869.89" y="-302.3" font-family="Times,serif" font-size="14.00">simtrir c e f f e c [007]</text>
</g>
<!-- r_r53_1 -->
<g id="node16" class="node">
<title>r_r53_1</title>
<polygon fill="pink" stroke="red" points="853.89,-252 801.6,-234 853.89,-216 906.17,-234 853.89,-252"/>
<text text-anchor="middle" x="853.89" y="-230.3" font-family="Times,serif" font-size="14.00">r53_1</text>
</g>
<!-- 007&#45;&gt;r_r53_1 -->
<g id="edge6" class="edge">
<title>007&#45;&gt;r_r53_1</title>
<path fill="none" stroke="black" d="M853.89,-287.83C853.89,-287.83 853.89,-262.41 853.89,-262.41"/>
<polygon fill="black" stroke="black" points="857.39,-262.41 853.89,-252.41 850.39,-262.41 857.39,-262.41"/>
</g>
<!-- 012 -->
<g id="node2" class="node">
<title>012</title>
<polygon fill="lightblue" stroke="blue" points="720.39,-180 505.39,-180 505.39,-144 720.39,-144 720.39,-180"/>
<text text-anchor="middle" x="612.89" y="-158.3" font-family="Times,serif" font-size="14.00">eqangle c e d e d e e f [012]</text>
</g>
<!-- r_a01_1 -->
<g id="node15" class="node">
<title>r_a01_1</title>
<polygon fill="pink" stroke="red" points="949.89,-108 895.43,-90 949.89,-72 1004.35,-90 949.89,-108"/>
<text text-anchor="middle" x="949.89" y="-86.3" font-family="Times,serif" font-size="14.00">a01_1</text>
</g>
<!-- 012&#45;&gt;r_a01_1 -->
<g id="edge20" class="edge">
<title>012&#45;&gt;r_a01_1</title>
<path fill="none" stroke="black" d="M612.89,-143.83C612.89,-122.5 612.89,-90 612.89,-90 612.89,-90 885.37,-90 885.37,-90"/>
<polygon fill="black" stroke="black" points="885.37,-93.5 895.37,-90 885.37,-86.5 885.37,-93.5"/>
</g>
<!-- 003 -->
<g id="node3" class="node">
<title>003</title>
<ellipse fill="lightblue" stroke="blue" cx="1049.89" cy="-162" rx="79.09" ry="18"/>
<text text-anchor="middle" x="1049.89" y="-158.3" font-family="Times,serif" font-size="14.00">coll b c g [003]</text>
</g>
<!-- 003&#45;&gt;r_a01_1 -->
<g id="edge18" class="edge">
<title>003&#45;&gt;r_a01_1</title>
<path fill="none" stroke="black" d="M987.36,-150.75C987.36,-150.75 987.36,-105.89 987.36,-105.89"/>
<polygon fill="black" stroke="black" points="990.86,-105.89 987.36,-95.89 983.86,-105.89 990.86,-105.89"/>
</g>
<!-- 004 -->
<g id="node4" class="node">
<title>004</title>
<ellipse fill="lightblue" stroke="blue" cx="871.89" cy="-450" rx="130.78" ry="18"/>
<text text-anchor="middle" x="871.89" y="-446.3" font-family="Times,serif" font-size="14.00">sameclock c e f c e f [004]</text>
</g>
<!-- r_r61_1 -->
<g id="node20" class="node">
<title>r_r61_1</title>
<polygon fill="pink" stroke="red" points="871.89,-396 819.6,-378 871.89,-360 924.17,-378 871.89,-396"/>
<text text-anchor="middle" x="871.89" y="-374.3" font-family="Times,serif" font-size="14.00">r61_1</text>
</g>
<!-- 004&#45;&gt;r_r61_1 -->
<g id="edge4" class="edge">
<title>004&#45;&gt;r_r61_1</title>
<path fill="none" stroke="black" d="M871.89,-431.83C871.89,-431.83 871.89,-406.41 871.89,-406.41"/>
<polygon fill="black" stroke="black" points="875.39,-406.41 871.89,-396.41 868.39,-406.41 875.39,-406.41"/>
</g>
<!-- 001 -->
<g id="node5" class="node">
<title>001</title>
<ellipse fill="lightblue" stroke="blue" cx="775.89" cy="-594" rx="90.98" ry="18"/>
<text text-anchor="middle" x="775.89" y="-590.3" font-family="Times,serif" font-size="14.00">cong c e e f [001]</text>
</g>
<!-- r_a00_1 -->
<g id="node19" class="node">
<title>r_a00_1</title>
<polygon fill="pink" stroke="red" points="1026.89,-540 972.43,-522 1026.89,-504 1081.35,-522 1026.89,-540"/>
<text text-anchor="middle" x="1026.89" y="-518.3" font-family="Times,serif" font-size="14.00">a00_1</text>
</g>
<!-- 001&#45;&gt;r_a00_1 -->
<g id="edge1" class="edge">
<title>001&#45;&gt;r_a00_1</title>
<path fill="none" stroke="black" d="M817,-577.66C817,-556.42 817,-522 817,-522 817,-522 962.56,-522 962.56,-522"/>
<polygon fill="black" stroke="black" points="962.56,-525.5 972.56,-522 962.56,-518.5 962.56,-525.5"/>
</g>
<!-- r_a00_3 -->
<g id="node21" class="node">
<title>r_a00_3</title>
<polygon fill="pink" stroke="red" points="712.89,-540 658.43,-522 712.89,-504 767.35,-522 712.89,-540"/>
<text text-anchor="middle" x="712.89" y="-518.3" font-family="Times,serif" font-size="14.00">a00_3</text>
</g>
<!-- 001&#45;&gt;r_a00_3 -->
<g id="edge10" class="edge">
<title>001&#45;&gt;r_a00_3</title>
<path fill="none" stroke="black" d="M726.01,-578.73C726.01,-578.73 726.01,-545.79 726.01,-545.79"/>
<polygon fill="black" stroke="black" points="729.51,-545.79 726.01,-535.79 722.51,-545.79 729.51,-545.79"/>
</g>
<!-- 002 -->
<g id="node6" class="node">
<title>002</title>
<ellipse fill="lightblue" stroke="blue" cx="1239.89" cy="-162" rx="92.88" ry="18"/>
<text text-anchor="middle" x="1239.89" y="-158.3" font-family="Times,serif" font-size="14.00">perp a g b c [002]</text>
</g>
<!-- 002&#45;&gt;r_a01_1 -->
<g id="edge21" class="edge">
<title>002&#45;&gt;r_a01_1</title>
<path fill="none" stroke="black" d="M1239.89,-143.83C1239.89,-122.5 1239.89,-90 1239.89,-90 1239.89,-90 1014.43,-90 1014.43,-90"/>
<polygon fill="black" stroke="black" points="1014.43,-86.5 1004.43,-90 1014.43,-93.5 1014.43,-86.5"/>
</g>
<!-- 008 -->
<g id="node7" class="node">
<title>008</title>
<polygon fill="lightblue" stroke="blue" points="952.89,-180 746.89,-180 746.89,-144 952.89,-144 952.89,-180"/>
<text text-anchor="middle" x="849.89" y="-158.3" font-family="Times,serif" font-size="14.00">eqangle c e c f c f e f [008]</text>
</g>
<!-- 008&#45;&gt;r_a01_1 -->
<g id="edge19" class="edge">
<title>008&#45;&gt;r_a01_1</title>
<path fill="none" stroke="black" d="M924.27,-143.83C924.27,-143.83 924.27,-109.75 924.27,-109.75"/>
<polygon fill="black" stroke="black" points="927.77,-109.75 924.27,-99.75 920.77,-109.75 927.77,-109.75"/>
</g>
<!-- 013 -->
<g id="node8" class="node">
<title>013</title>
<polygon fill="lightgreen" stroke="green" points="1057.39,-36 842.39,-36 842.39,0 1057.39,0 1057.39,-36"/>
<text text-anchor="middle" x="949.89" y="-14.3" font-family="Times,serif" font-size="14.00">eqangle a g c f c g d e [013]</text>
</g>
<!-- 005 -->
<g id="node9" class="node">
<title>005</title>
<ellipse fill="lightblue" stroke="blue" cx="133.89" cy="-450" rx="133.78" ry="18"/>
<text text-anchor="middle" x="133.89" y="-446.3" font-family="Times,serif" font-size="14.00">sameclock c d e d f e [005]</text>
</g>
<!-- r_r61_2 -->
<g id="node18" class="node">
<title>r_r61_2</title>
<polygon fill="pink" stroke="red" points="421.89,-396 369.6,-378 421.89,-360 474.17,-378 421.89,-396"/>
<text text-anchor="middle" x="421.89" y="-374.3" font-family="Times,serif" font-size="14.00">r61_2</text>
</g>
<!-- 005&#45;&gt;r_r61_2 -->
<g id="edge14" class="edge">
<title>005&#45;&gt;r_r61_2</title>
<path fill="none" stroke="black" d="M133.89,-431.83C133.89,-410.5 133.89,-378 133.89,-378 133.89,-378 359.4,-378 359.4,-378"/>
<polygon fill="black" stroke="black" points="359.4,-381.5 369.4,-378 359.4,-374.5 359.4,-381.5"/>
</g>
<!-- 006 -->
<g id="node10" class="node">
<title>006</title>
<polygon fill="lightblue" stroke="blue" points="1220.89,-468 1020.89,-468 1020.89,-432 1220.89,-432 1220.89,-468"/>
<text text-anchor="middle" x="1120.89" y="-446.3" font-family="Times,serif" font-size="14.00">eqratio c e c f e f c f [006]</text>
</g>
<!-- 006&#45;&gt;r_r61_1 -->
<g id="edge3" class="edge">
<title>006&#45;&gt;r_r61_1</title>
<path fill="none" stroke="black" d="M1075.03,-431.83C1075.03,-410.5 1075.03,-378 1075.03,-378 1075.03,-378 934.2,-378 934.2,-378"/>
<polygon fill="black" stroke="black" points="934.2,-374.5 924.2,-378 934.2,-381.5 934.2,-374.5"/>
</g>
<!-- 010 -->
<g id="node11" class="node">
<title>010</title>
<polygon fill="lightblue" stroke="blue" points="723.39,-468 514.39,-468 514.39,-432 723.39,-432 723.39,-468"/>
<text text-anchor="middle" x="618.89" y="-446.3" font-family="Times,serif" font-size="14.00">eqratio c e d e e f d e [010]</text>
</g>
<!-- 010&#45;&gt;r_r61_2 -->
<g id="edge13" class="edge">
<title>010&#45;&gt;r_r61_2</title>
<path fill="none" stroke="black" d="M545.14,-431.83C545.14,-410.5 545.14,-378 545.14,-378 545.14,-378 484.51,-378 484.51,-378"/>
<polygon fill="black" stroke="black" points="484.51,-374.5 474.51,-378 484.51,-381.5 484.51,-374.5"/>
</g>
<!-- 011 -->
<g id="node12" class="node">
<title>011</title>
<polygon fill="lightblue" stroke="blue" points="575.89,-324 393.89,-324 393.89,-288 575.89,-288 575.89,-324"/>
<text text-anchor="middle" x="484.89" y="-302.3" font-family="Times,serif" font-size="14.00">simtrir c d e f d e [011]</text>
</g>
<!-- r_r53_2 -->
<g id="node17" class="node">
<title>r_r53_2</title>
<polygon fill="pink" stroke="red" points="610.89,-252 558.6,-234 610.89,-216 663.17,-234 610.89,-252"/>
<text text-anchor="middle" x="610.89" y="-230.3" font-family="Times,serif" font-size="14.00">r53_2</text>
</g>
<!-- 011&#45;&gt;r_r53_2 -->
<g id="edge16" class="edge">
<title>011&#45;&gt;r_r53_2</title>
<path fill="none" stroke="black" d="M567.19,-287.83C567.19,-287.83 567.19,-247.14 567.19,-247.14"/>
<polygon fill="black" stroke="black" points="570.69,-247.14 567.19,-237.14 563.69,-247.14 570.69,-247.14"/>
</g>
<!-- 000 -->
<g id="node13" class="node">
<title>000</title>
<ellipse fill="lightblue" stroke="blue" cx="390.89" cy="-594" rx="91.78" ry="18"/>
<text text-anchor="middle" x="390.89" y="-590.3" font-family="Times,serif" font-size="14.00">cong c d d f [000]</text>
</g>
<!-- r_a00_2 -->
<g id="node22" class="node">
<title>r_a00_2</title>
<polygon fill="pink" stroke="red" points="390.89,-540 336.43,-522 390.89,-504 445.35,-522 390.89,-540"/>
<text text-anchor="middle" x="390.89" y="-518.3" font-family="Times,serif" font-size="14.00">a00_2</text>
</g>
<!-- 000&#45;&gt;r_a00_2 -->
<g id="edge8" class="edge">
<title>000&#45;&gt;r_a00_2</title>
<path fill="none" stroke="black" d="M390.89,-575.83C390.89,-575.83 390.89,-550.41 390.89,-550.41"/>
<polygon fill="black" stroke="black" points="394.39,-550.41 390.89,-540.41 387.39,-550.41 394.39,-550.41"/>
</g>
<!-- 009 -->
<g id="node14" class="node">
<title>009</title>
<polygon fill="lightblue" stroke="blue" points="496.39,-468 285.39,-468 285.39,-432 496.39,-432 496.39,-468"/>
<text text-anchor="middle" x="390.89" y="-446.3" font-family="Times,serif" font-size="14.00">eqratio c d d e d f d e [009]</text>
</g>
<!-- 009&#45;&gt;r_r61_2 -->
<g id="edge12" class="edge">
<title>009&#45;&gt;r_r61_2</title>
<path fill="none" stroke="black" d="M421.89,-431.83C421.89,-431.83 421.89,-406.41 421.89,-406.41"/>
<polygon fill="black" stroke="black" points="425.39,-406.41 421.89,-396.41 418.39,-406.41 425.39,-406.41"/>
</g>
<!-- r_a01_1&#45;&gt;013 -->
<g id="edge22" class="edge">
<title>r_a01_1&#45;&gt;013</title>
<path fill="none" stroke="black" d="M949.89,-71.83C949.89,-71.83 949.89,-46.41 949.89,-46.41"/>
<polygon fill="black" stroke="black" points="953.39,-46.41 949.89,-36.41 946.39,-46.41 953.39,-46.41"/>
</g>
<!-- r_r53_1&#45;&gt;008 -->
<g id="edge7" class="edge">
<title>r_r53_1&#45;&gt;008</title>
<path fill="none" stroke="black" d="M853.89,-215.83C853.89,-215.83 853.89,-190.41 853.89,-190.41"/>
<polygon fill="black" stroke="black" points="857.39,-190.41 853.89,-180.41 850.39,-190.41 857.39,-190.41"/>
</g>
<!-- r_r53_2&#45;&gt;012 -->
<g id="edge17" class="edge">
<title>r_r53_2&#45;&gt;012</title>
<path fill="none" stroke="black" d="M610.89,-215.83C610.89,-215.83 610.89,-190.41 610.89,-190.41"/>
<polygon fill="black" stroke="black" points="614.39,-190.41 610.89,-180.41 607.39,-190.41 614.39,-190.41"/>
</g>
<!-- r_r61_2&#45;&gt;011 -->
<g id="edge15" class="edge">
<title>r_r61_2&#45;&gt;011</title>
<path fill="none" stroke="black" d="M434.08,-364.12C434.08,-364.12 434.08,-334.2 434.08,-334.2"/>
<polygon fill="black" stroke="black" points="437.58,-334.2 434.08,-324.2 430.58,-334.2 437.58,-334.2"/>
</g>
<!-- r_a00_1&#45;&gt;006 -->
<g id="edge2" class="edge">
<title>r_a00_1&#45;&gt;006</title>
<path fill="none" stroke="black" d="M1051,-511.68C1051,-511.68 1051,-478.09 1051,-478.09"/>
<polygon fill="black" stroke="black" points="1054.5,-478.09 1051,-468.09 1047.5,-478.09 1054.5,-478.09"/>
</g>
<!-- r_r61_1&#45;&gt;007 -->
<g id="edge5" class="edge">
<title>r_r61_1&#45;&gt;007</title>
<path fill="none" stroke="black" d="M871.89,-359.83C871.89,-359.83 871.89,-334.41 871.89,-334.41"/>
<polygon fill="black" stroke="black" points="875.39,-334.41 871.89,-324.41 868.39,-334.41 875.39,-334.41"/>
</g>
<!-- r_a00_3&#45;&gt;010 -->
<g id="edge11" class="edge">
<title>r_a00_3&#45;&gt;010</title>
<path fill="none" stroke="black" d="M691.02,-511.06C691.02,-511.06 691.02,-478.05 691.02,-478.05"/>
<polygon fill="black" stroke="black" points="694.52,-478.05 691.02,-468.05 687.52,-478.05 694.52,-478.05"/>
</g>
<!-- r_a00_2&#45;&gt;009 -->
<g id="edge9" class="edge">
<title>r_a00_2&#45;&gt;009</title>
<path fill="none" stroke="black" d="M390.89,-503.83C390.89,-503.83 390.89,-478.41 390.89,-478.41"/>
<polygon fill="black" stroke="black" points="394.39,-478.41 390.89,-468.41 387.39,-478.41 394.39,-478.41"/>
</g>
</g>
</svg>
